PathFileType	4	(X/Y/Z)	C:/Users/beibeiliu/ov580/test_trc/User3\sequence.16_training_dense_right.trc
DataRate	CameraRate	NumFrames	NumMarkers	Units	OrigDataRate	OrigDataStartFrame	OrigNumFrames
120	120	10	19	mm	120	200	266
Frame#	Time	ThumbCMC			ThumbMCP			ThumbIP			ThumbTip			IndexMCP			IndexPIP			IndexTip			MiddleMCP			MiddlePIP			MiddleTip			RingMCP			RingPIP			RingTip			PinkyMCP			PinkyPIP			PinkyTip			BackHand1			BackHand2			BackHand3	
		X0	Y0	Z0	X1	Y1	Z1	X2	Y2	Z2	X3	Y3	Z3	X4	Y4	Z4	X5	Y5	Z5	X6	Y6	Z6	X7	Y7	Z7	X8	Y8	Z8	X9	Y9	Z9	X10	Y10	Z10	X11	Y11	Z11	X12	Y12	Z12	X13	Y13	Z13	X14	Y14	Z14	X15	Y15	Z15	X16	Y16	Z16	X17	Y17	Z17	X18	Y18	Z18	
199	1.65833	182.704	-17.4102	6.42385	170.806	-9.00692	-25.5354	159.541	-11.8142	-51.4831	146.224	-13.6582	-69.2047	175.136	-51.4806	-60.0383	163.758	-39.1273	-84.4801	141.294	-19.0278	-88.1695	158.527	-64.2557	-59.6051	140.99	-44.9221	-77.682	122.421	-16.7287	-53.2139	144.893	-72.3743	-45.303	126.7	-54.0216	-64.2183	118.108	-28.0185	-43.7809	133.206	-79.8105	-23.9067	117.998	-69.0455	-49.5568	111.307	-42.3575	-43.9215	163.315	-76.5883	5.62059	169.686	-67.068	37.1254	195.242	-50.8526	11.3422	
200	1.66667	185.459	-15.6101	9.68836	175.135	-9.52233	-20.0873	168.44	-12.6995	-52.487	158.631	-14.8234	-72.284	192.068	-51.7209	-56.1597	176.884	-42.6121	-84.5143	156.437	-22.8579	-90.7275	171.556	-66.806	-59.2032	153.768	-50.1377	-78.7814	133.814	-21.8612	-59.0771	157.466	-76.4603	-47.1212	137.52	-59.7157	-65.2604	127.892	-32.2674	-46.1567	143.844	-84.5267	-27.2469	133.163	-72.566	-53.8078	121.73	-46.2063	-50.1452	175.533	-74.9643	7.2645	170.737	-68.0335	40.5867	197.192	-51.964	15.101	
201	1.675	188.75	-12.1148	12.9364	180.574	-9.90131	-23.3192	176.148	-11.2	-49.0753	168.27	-16.0444	-72.6173	204.621	-50.398	-52.1811	190.814	-43.7553	-82.8777	171.221	-24.0695	-91.7219	184.993	-67.5526	-56.3973	170.92	-48.3656	-80.5865	144.498	-22.074	-60.0316	169.994	-77.8015	-44.9563	151.805	-65.4659	-67.345	140.713	-35.3034	-52.8244	156.365	-84.7063	-28.6375	146.138	-79.2589	-55.5037	133.153	-50.5888	-53.0908	178.015	-77.5974	8.85519	177.426	-67.6644	37.8888	201.882	-45.7921	19.6896	
202	1.68333	189.07	-12.4751	11.6496	181.352	-8.81448	-20.2077	180.542	-10.4724	-51.6356	174.573	-19.2549	-72.2014	215.91	-45.465	-52.8427	203.057	-39.2178	-80.4302	180.031	-23.257	-91.2639	200.415	-61.7811	-52.7781	180.334	-48.7916	-79.5488	157.054	-23.7908	-63.4738	185.58	-73.7644	-47.526	164.159	-61.66	-68.6236	148.719	-39.0889	-53.6495	168.699	-86.398	-31.8583	161.558	-77.2794	-57.6771	141.929	-53.2959	-56.2014	188.406	-75.5573	12.5351	178.946	-68.6029	37.5292	205.376	-44.7693	21.4852	
203	1.69167	191.206	-7.49213	11.1208	183.333	-4.18409	-20.1975	182.531	-9.15086	-50.2971	178.492	-16.2936	-73.5493	221.853	-38.2595	-51.0753	212.428	-30.9662	-78.5996	185.045	-15.1302	-90.4941	209.58	-57.6543	-56.0343	190.348	-44.4508	-77.5624	160.112	-27.0163	-58.6456	194.697	-72.2056	-47.0014	174.103	-57.9599	-68.7589	154.778	-39.5802	-48.8411	183.828	-83.1283	-35.5886	172.7	-72.9956	-58.4729	152.901	-54.641	-56.5859	197.989	-72.1138	11.2148	184.727	-68.3583	41.6207	212.295	-40.7925	22.2628	
204	1.7	184.854	-5.45323	15.2666	180.385	-4.39852	-19.0136	181.478	-2.47882	-49.3759	177.942	-11.7463	-70.7156	224.156	-29.2953	-50.34	212.142	-19.7294	-78.0738	182.336	-12.7351	-88.5396	215.418	-48.5434	-54.6863	193.099	-39.6768	-75.9991	163.175	-23.8519	-54.5796	205.477	-62.597	-50.4808	179.498	-55.6915	-67.5106	161.245	-37.0251	-47.2427	194.961	-77.5269	-35.0128	179.911	-71.9389	-59.6906	159.71	-53.7616	-54.718	204.752	-65.2801	10.3148	194.023	-64.3123	37.4346	212.209	-32.6036	23.6154	
205	1.70833	177.549	-1.12771	15.5773	171.536	7.09339	-15.4476	173.607	6.79398	-45.6722	176.087	-6.25962	-68.1609	219.727	-8.04468	-49.174	204.639	-1.99044	-76.645	180.255	-1.00542	-85.2203	217.104	-29.9155	-51.4194	192.962	-25.7694	-73.9388	160.021	-24.9228	-46.7402	211.722	-48.93	-51.773	187.657	-43.4835	-67.7359	164.561	-34.9718	-45.4364	205.479	-63.2389	-35.4349	190.411	-59.7025	-60.8768	163.266	-48.5692	-49.8724	215.665	-55.278	8.72338	202.221	-53.3277	38.2492	211.707	-21.4671	23.9957	
206	1.71667	165.843	5.01166	20.643	158.806	13.9342	-11.6958	160.52	18.4928	-42.7372	167.012	7.27074	-63.7354	206.11	20.5471	-42.7438	189.825	23.9961	-68.3639	163.277	11.7946	-79.2896	211.676	-1.4385	-47.5333	186.508	-7.09148	-70.9432	156.749	-19.1331	-44.4607	212.937	-22.4376	-46.0618	184.498	-28.2886	-63.8423	163.907	-32.0173	-36.6053	213.16	-40.0339	-37.5723	192.4	-37.8433	-59.1004	168.505	-41.6752	-44.2535	218.496	-27.696	10.2772	208.186	-40.346	34.9526	202.342	-5.00267	26.0996	
207	1.725	154.909	2.50636	26.2483	150.609	13.2856	-6.32035	149.815	23.9599	-36.3357	159.084	16.4333	-58.3264	190.173	38.8438	-34.455	177.436	37.8982	-62.8678	155.722	21.8327	-73.3347	199.764	17.3971	-46.8696	179.568	6.74237	-66.2914	153.537	-16.252	-41.7155	208.258	-3.36142	-41.5325	182.303	-16.3097	-60.0463	165.338	-27.5651	-37.8648	213.156	-20.9481	-35.0015	192.485	-28.5643	-56.7244	171.458	-35.5868	-38.9657	217.036	-12.0034	14.2812	209.483	-30.9719	40.8257	193.498	4.38102	34.2277	
208	1.73333	148.684	0.703543	27.9363	140.109	11.8705	-1.43064	143.894	23.5658	-31.4584	155.77	22.823	-56.0551	177.73	46.6349	-25.2375	165.801	48.8685	-53.2526	145.345	24.2405	-70.9958	189.941	29.1961	-40.2135	173.654	14.0478	-62.7934	154.626	-15.114	-43.2636	201.132	11.1442	-37.6504	182.643	-2.04443	-57.6569	165.39	-24.2959	-36.7891	210.274	-6.02436	-36.67	195.339	-17.4345	-54.5922	173.844	-30.7654	-37.7805	210.501	-1.91047	17.3288	207.659	-19.5929	40.7703	187.045	9.93539	34.1914	
